<?xml version="1.0" standalone="no"?>
<!DOCTYPE svg PUBLIC "-//W3C//DTD SVG 20010904//EN"
 "http://www.w3.org/TR/2001/REC-SVG-20010904/DTD/svg10.dtd">
<svg version="1.0" xmlns="http://www.w3.org/2000/svg"
 width="694.000000pt" height="694.000000pt" viewBox="0 0 694.000000 694.000000"
 preserveAspectRatio="xMidYMid meet">
<metadata>
Created by potrace 1.14, written by Peter Selinger 2001-2017
</metadata>
<g transform="translate(0.000000,694.000000) scale(0.100000,-0.100000)"
fill="#000000" stroke="none">
<path d="M3387 6864 c-1 -1 -71 -5 -156 -8 -84 -4 -177 -9 -205 -11 -28 -3
-80 -7 -116 -10 -121 -9 -370 -38 -440 -50 -14 -3 -45 -7 -70 -11 -25 -3 -52
-7 -60 -9 -8 -2 -31 -7 -50 -10 -260 -42 -603 -122 -920 -213 -144 -42 -554
-182 -560 -192 -3 -5 -4 -79 -3 -167 1 -87 4 -588 8 -1113 10 -1507 14 -1841
20 -1900 64 -630 379 -1343 841 -1905 109 -133 120 -144 230 -258 272 -278
543 -481 878 -657 235 -124 600 -257 677 -247 86 11 556 223 675 303 19 13 37
24 40 24 5 0 171 109 239 157 39 27 202 154 254 197 228 190 491 475 682 741
149 207 243 364 359 600 122 251 227 541 265 730 47 236 52 306 55 725 1 206
3 578 5 825 15 2005 15 2012 3 2023 -23 18 -243 92 -413 138 -33 8 -91 24
-130 35 -38 10 -83 21 -99 24 -16 3 -32 8 -36 10 -14 9 -381 88 -515 110 -16
3 -55 10 -85 15 -30 5 -68 12 -85 14 -16 3 -66 10 -110 16 -44 6 -91 13 -105
15 -14 2 -54 7 -90 11 -36 3 -78 8 -95 10 -16 2 -66 6 -110 9 -44 3 -96 8
-115 10 -87 9 -656 25 -663 19z"/>
</g>
</svg>
