<svg xmlns="http://www.w3.org/2000/svg" width="270" height="18" viewBox="0 0 270 18"><g><g><path d="M.002.268h31.541c1.082 0 3.245.086 3.245 2.642v7.927c0 1.231-.812 2.993-2.615 2.993H3.516v4.14H.002zm3.514 9.862H29.65c.992 0 1.442-.527 1.442-1.758V4.848c0-.704-.45-1.32-1.711-1.32H3.516zm70.461 5.915c0 .952-.756 1.72-1.687 1.72H41.352c-.931 0-1.686-.768-1.686-1.72V1.926c0-.948.755-1.72 1.686-1.72H72.29c.931 0 1.687.772 1.687 1.72zM70.545 4.45c0-.6-.603-1.09-1.348-1.09h-24.75c-.746 0-1.35.49-1.35 1.09v8.95c0 .6.604 1.09 1.35 1.09h24.75c.745 0 1.348-.49 1.348-1.09zm8.22-4.182h31.991c1.802 0 2.703 1.231 2.703 3.345v7.4c0 2.114-1.351 2.727-1.803 2.817l2.162 3.963h-4.143l-1.983-4.053H82.279v4.23h-3.514zm3.604 9.862h26.043c1.173 0 1.623-.527 1.623-1.586v-3.52c0-.88-.541-1.41-1.623-1.41H82.37zM152.297.088v3.525h-27.664c-1.172 0-1.352.793-1.352 1.32V6.08s-.09 1.234 1.172 1.234h25.143c2.342 0 2.886 1.848 2.886 2.817v4.756c0 2.293-1.715 2.996-2.98 2.996h-29.645v-3.434h27.58c1.255 0 1.53-.527 1.53-1.235v-1.496c0-1.079-1.806-.88-2.526-.88H122.47c-2.071 0-2.613-1.5-2.613-2.731V2.558c0-1.586 1.532-2.38 3.065-2.38 1.531 0 29.375-.09 29.375-.09zm39.114.09v3.26h-27.483c-1.264 0-1.53.877-1.53 1.671v7.753c0 1.235.356 1.586 1.255 1.586h27.668v3.345h-29.653c-2.516 0-2.792-1.673-2.792-3.17V2.468c0-2.38 2.166-2.38 2.886-2.38.72 0 29.65.09 29.65.09zm38.416-.176V18h-3.512v-7.253h-25.984V18h-3.514V.002h3.514v7.311h25.985V.002zm8.983 3.526v3.61h31.183v3.433H238.81v3.877h31.183v3.434h-34.698V.088h34.698v3.44z"/></g></g></svg>